# xmcd
#
# Track frame offsets: 
#        150
#        19333
#        33846
#        45396
#        67240
#        85388
#        98250
#        110713
#        123648
#        140868
#
# Disc length: 2116 seconds
#
# Revision: 0
# Processed by: cddbd v1.4PL0 Copyright (c) Steve Scherf et al.
# Submitted via: ExactAudioCopy v0.90b4
#
DISCID=8b08420a
DTITLE=Gordon Lightfoot - Endless Wire
DYEAR=1978
DGENRE=Country
TTITLE0=Daylight Katy
TTITLE1=Sweet Guinevere
TTITLE2=Hangdog Hotel Room
TTITLE3=If There Is A Reason
TTITLE4=Endless Wire
TTITLE5=Dreamland
TTITLE6=Songs Of The Ministrel Sang
TTITLE7=Sometimes I Don't Mind
TTITLE8=If Children Had Wings
TTITLE9=The Cirdle Is Small
EXTD=
EXTT0=
EXTT1=
EXTT2=
EXTT3=
EXTT4=
EXTT5=
EXTT6=
EXTT7=
EXTT8=
EXTT9=
PLAYORDER=
